<?xml version="1.0" encoding="UTF-8"?>
<svg version="1.1" xmlns="http://www.w3.org/2000/svg" width="541" height="542">
<path d="M0 0 C178.53 0 357.06 0 541 0 C541 178.86 541 357.72 541 542 C362.47 542 183.94 542 0 542 C0 363.14 0 184.28 0 0 Z " fill="#692B7C" transform="translate(0,0)"/>
<path d="M0 0 C8.58 0 17.16 0 26 0 C33.5274658 9.06083846 33.5274658 9.06083846 35.359375 13.3828125 C38.05137928 19.2981921 41.43463007 24.57908463 45 30 C46.19327847 31.86646397 47.38340913 33.73494432 48.5703125 35.60546875 C49.14813477 36.51345215 49.72595703 37.42143555 50.32128906 38.35693359 C52.84865051 42.33616789 55.36186856 46.32426966 57.875 50.3125 C62.5502123 57.72966113 67.26902532 65.11829787 72 72.5 C77.21229201 80.63269773 82.40153005 88.77888912 87.55151367 96.95117188 C93.66830766 106.65489128 99.83745021 116.32530373 106 126 C108.31 129.63 110.62 133.26 113 137 C113.33 91.79 113.66 46.58 114 0 C120.6 0 127.2 0 134 0 C134 54.78 134 109.56 134 166 C126.08 166 118.16 166 110 166 C102.04386735 156.36889205 102.04386735 156.36889205 99.92578125 151.828125 C97.04346041 145.96345041 93.63919782 140.58571972 90.0625 135.125 C88.88368249 133.27536909 87.70791203 131.42379277 86.53515625 129.5703125 C83.02848756 124.04365553 79.51485648 118.52145216 76 113 C74.83330173 111.16668678 73.66663508 109.33335344 72.5 107.5 C71.9225 106.5925 71.345 105.685 70.75 104.75 C51.5 74.5 51.5 74.5 49.74804688 71.74682617 C48.58801714 69.92399174 47.42786206 68.10123709 46.26757812 66.27856445 C43.24830338 61.53526345 40.23159134 56.79035914 37.21875 52.04296875 C36.59613281 51.06263672 35.97351563 50.08230469 35.33203125 49.07226562 C34.15152571 47.21340989 32.97177931 45.35407171 31.79296875 43.49414062 C31.25285156 42.64400391 30.71273437 41.79386719 30.15625 40.91796875 C29.69025391 40.18344482 29.22425781 39.4489209 28.74414062 38.69213867 C26.20236093 34.76881774 23.59307309 30.88960964 21 27 C20.67 72.87 20.34 118.74 20 166 C13.4 166 6.8 166 0 166 C0 111.22 0 56.44 0 0 Z " fill="#FAF9FB" transform="translate(102,231)"/>
<path d="M0 0 C28.05 0 56.1 0 85 0 C85 5.94 85 11.88 85 18 C63.55 18 42.1 18 20 18 C20 36.15 20 54.3 20 73 C39.8 73 59.6 73 80 73 C80 78.61 80 84.22 80 90 C60.2 90 40.4 90 20 90 C20 109.14 20 128.28 20 148 C42.77 148 65.54 148 89 148 C89 153.94 89 159.88 89 166 C59.63 166 30.26 166 0 166 C0 111.22 0 56.44 0 0 Z " fill="#FAF8FB" transform="translate(272,231)"/>
<path d="M0 0 C38.28 0 76.56 0 116 0 C116 5.94 116 11.88 116 18 C100.16 18 84.32 18 68 18 C68 66.84 68 115.68 68 166 C61.4 166 54.8 166 48 166 C48 117.16 48 68.32 48 18 C32.16 18 16.32 18 0 18 C0 12.06 0 6.12 0 0 Z " fill="#FAF8FA" transform="translate(378,231)"/>
<path d="M0 0 C5.47676777 2.9280912 8.83273682 6.44206122 11.25390625 12.171875 C13.45544019 20.21466482 12.83913694 28.27975788 9.3671875 35.8515625 C6.17049271 41.02048712 1.77490675 44.15865577 -3.96875 46.01171875 C-11.08813283 46.70563328 -17.82015043 46.90164909 -23.96875 43.01171875 C-29.29457385 38.22986266 -32.41998813 32.72192478 -33.25 25.59765625 C-33.51654988 18.42302207 -32.05495329 12.24893076 -28.15625 6.19921875 C-20.47430825 -1.482723 -10.34849044 -3.444958 0 0 Z " fill="#F6F2F7" transform="translate(304.96875,164.98828125)"/>
<path d="M0 0 C4.39731352 3.0823887 7.32760717 7.35782151 9.01171875 12.41015625 C10.29153272 29.87047538 10.29153272 29.87047538 5.50390625 35.90234375 C-0.39197995 41.85996698 -5.23576848 44.68712128 -13.80078125 44.84765625 C-20.19726826 44.72066225 -24.43991637 44.04275011 -28.98828125 39.41015625 C-34.87600699 32.81184293 -35.7778956 26.58838306 -35.3671875 17.90234375 C-34.62436167 11.05609334 -33.25002893 7.28923151 -28.17578125 2.53515625 C-19.97164987 -3.98950621 -9.39955271 -4.70821402 0 0 Z " fill="#6C307E" transform="translate(394.98828125,166.58984375)"/>
<path d="M0 0 C3.3 0 6.6 0 10 0 C14.4267732 8.57872003 18.37238812 17.2954414 22.125 26.1875 C23.1478997 28.59788455 24.17132561 31.00804587 25.1953125 33.41796875 C25.67258789 34.54251465 26.14986328 35.66706055 26.64160156 36.82568359 C28.38640566 40.90295586 30.18352261 44.95420945 32 49 C34.67730334 45.75642025 36.25011525 42.43672965 37.890625 38.57421875 C38.15637833 37.95365097 38.42213165 37.33308319 38.69593811 36.69371033 C39.26095406 35.37329227 39.82364684 34.05187805 40.38418579 32.72955322 C41.82699562 29.32663556 43.28678501 25.93102386 44.74609375 22.53515625 C45.02950119 21.87469299 45.31290863 21.21422974 45.60490417 20.53375244 C48.58164458 13.6139407 51.72690355 6.78423628 55 0 C58.3 0 61.6 0 65 0 C65 20.79 65 41.58 65 63 C62.69 63 60.38 63 58 63 C57.67 45.84 57.34 28.68 57 11 C54.02647132 17.92294553 51.05367279 24.84619494 48.08276367 31.77026367 C47.07147964 34.12657008 46.05976277 36.48269078 45.04760742 38.83862305 C43.59440605 42.22135686 42.14275307 45.60475142 40.69140625 48.98828125 C40.23721817 50.04461258 39.78303009 51.10094391 39.31507874 52.18928528 C38.89471848 53.17007553 38.47435822 54.15086578 38.04125977 55.16137695 C37.67041763 56.02519485 37.2995755 56.88901276 36.91749573 57.77900696 C36.20963063 59.4925446 35.58628357 61.24114929 35 63 C33.35 63 31.7 63 30 63 C22.74 45.84 15.48 28.68 8 11 C7.67 28.16 7.34 45.32 7 63 C4.69 63 2.38 63 0 63 C0 42.21 0 21.42 0 0 Z " fill="#F7F4F8" transform="translate(102,147)"/>
<path d="M0 0 C4.39731352 3.0823887 7.32760717 7.35782151 9.01171875 12.41015625 C10.29153272 29.87047538 10.29153272 29.87047538 5.50390625 35.90234375 C-0.39197995 41.85996698 -5.23576848 44.68712128 -13.80078125 44.84765625 C-20.19726826 44.72066225 -24.43991637 44.04275011 -28.98828125 39.41015625 C-34.87600699 32.81184293 -35.7778956 26.58838306 -35.3671875 17.90234375 C-34.62436167 11.05609334 -33.25002893 7.28923151 -28.17578125 2.53515625 C-19.97164987 -3.98950621 -9.39955271 -4.70821402 0 0 Z M-25.98828125 10.41015625 C-28.85125767 16.1547604 -29.09852423 22.61262059 -27.30078125 28.76171875 C-25.19593963 33.44499136 -22.79693638 36.31183401 -17.98828125 38.41015625 C-13.559995 39.10310715 -9.18822599 39.45246878 -5.05078125 37.4921875 C-1.48528041 34.7378381 0.65182022 31.64095166 2.01171875 27.41015625 C2.85665447 20.21881448 2.98519682 13.88761045 -1.51171875 7.93359375 C-4.969181 4.36637079 -8.53406636 3.23322773 -13.36328125 2.78515625 C-18.9920437 2.96611477 -22.55732148 6.15642436 -25.98828125 10.41015625 Z " fill="#F8F6F9" transform="translate(394.98828125,166.58984375)"/>
<path d="M0 0 C3.64640759 2.15819897 7.16152451 4.7766268 8.6953125 8.84375 C9.73481925 16.20025928 10.22083083 23.94123676 6.25 30.4765625 C3.54477712 33.77355289 0.75705841 34.71828981 -3.36328125 35.37890625 C-8.12621602 35.71859963 -11.22974797 35.36648285 -15 32.3125 C-18.43509593 29.1168699 -19.81309617 25.78165467 -20.30078125 21.1328125 C-20.32476247 14.97763181 -20.21768665 10.32582618 -17 5 C-11.69555638 0.08368641 -7.15827508 -1.29203218 0 0 Z " fill="#6A2E7D" transform="translate(300,170)"/>
<path d="M0 0 C0.66 0.33 1.32 0.66 2 1 C2 2.98 2 4.96 2 7 C1.37351562 7.03738281 0.74703125 7.07476562 0.1015625 7.11328125 C-1.12433594 7.21189453 -1.12433594 7.21189453 -2.375 7.3125 C-3.18710937 7.37050781 -3.99921875 7.42851562 -4.8359375 7.48828125 C-7.37921338 7.82990528 -7.37921338 7.82990528 -9 11 C-9.45915507 13.96842658 -9.45915507 13.96842658 -9.625 17.1875 C-9.69976562 18.27417969 -9.77453125 19.36085937 -9.8515625 20.48046875 C-9.90054687 21.31191406 -9.94953125 22.14335937 -10 23 C-6.7 23 -3.4 23 0 23 C0 24.98 0 26.96 0 29 C-3.3 29 -6.6 29 -10 29 C-10 41.87 -10 54.74 -10 68 C-12.64 68 -15.28 68 -18 68 C-18 55.13 -18 42.26 -18 29 C-20.31 29 -22.62 29 -25 29 C-25 27.02 -25 25.04 -25 23 C-22.36 23 -19.72 23 -17 23 C-17.10441406 21.60587891 -17.10441406 21.60587891 -17.2109375 20.18359375 C-17.70837984 8.825327 -17.70837984 8.825327 -14.25 4.75 C-9.85429433 0.44309646 -6.10972084 -0.33942894 0 0 Z " fill="#F4F0F5" transform="translate(434,142)"/>
<path d="M0 0 C0.92683594 0.00644531 1.85367187 0.01289063 2.80859375 0.01953125 C5.47966056 0.18244738 7.95591958 0.5961705 10.5625 1.1875 C10.5625 3.8275 10.5625 6.4675 10.5625 9.1875 C9.551875 8.8575 8.54125 8.5275 7.5 8.1875 C3.78074173 7.13132118 0.44028006 6.88920923 -3.4375 7.1875 C-6.78453258 8.91188077 -6.78453258 8.91188077 -7.125 12.5 C-6.83419012 16.1005817 -6.83419012 16.1005817 -4.92578125 17.58203125 C-2.80850365 18.89233075 -0.65145667 20.04857153 1.5625 21.1875 C10.85925204 26.56809808 10.85925204 26.56809808 12.5625 30.1875 C13.1045084 34.36870767 12.86029521 36.60336324 10.9375 40.375 C7.69261242 44.21763003 5.15849769 46.87378427 -0.0234375 47.5 C-5.52483333 47.62057854 -10.26061269 47.02817104 -15.4375 45.1875 C-15.4375 42.5475 -15.4375 39.9075 -15.4375 37.1875 C-14.65375 37.6825 -13.87 38.1775 -13.0625 38.6875 C-8.4738752 40.5862413 -4.35337512 40.83900152 0.5625 40.1875 C3.82131553 38.50356677 3.82131553 38.50356677 4.25 35.375 C3.90007029 32.21835757 3.90007029 32.21835757 2.05078125 30.859375 C-0.07083586 29.54222175 -2.22928988 28.35346494 -4.4375 27.1875 C-13.65249661 21.9846966 -13.65249661 21.9846966 -15.4375 17.1875 C-16.02772782 13.12148614 -16.36607008 10.72610156 -14.23046875 7.1875 C-10.03660807 2.09116297 -6.72968543 -0.10267204 0 0 Z " fill="#F6F2F7" transform="translate(340.4375,163.8125)"/>
<path d="M0 0 C1.12148437 -0.01417969 2.24296875 -0.02835938 3.3984375 -0.04296875 C6.57384842 0.18384632 8.76734718 0.83359332 11.625 2.1875 C11.625 4.4975 11.625 6.8075 11.625 9.1875 C10.84125 8.8575 10.0575 8.5275 9.25 8.1875 C3.27641627 6.53961483 -2.04899997 6.11064814 -7.75 8.75 C-11.73410487 12.44952595 -14.02678239 15.49566052 -14.72265625 20.875 C-14.93632032 27.71225039 -13.96311796 32.28567078 -9.3125 37.5 C-4.93613432 41.31167333 0.07999277 40.52285205 5.625 40.1875 C9.13329714 39.33034151 9.13329714 39.33034151 11.625 38.1875 C11.625 40.1675 11.625 42.1475 11.625 44.1875 C5.00750082 47.984756 -0.90779124 47.96207061 -8.375 47.1875 C-13.81851635 45.54329796 -17.16714753 41.67849346 -20.375 37.1875 C-23.54180409 30.85389182 -23.39222438 23.10114807 -22.375 16.1875 C-19.89691112 9.20299327 -15.67924385 4.87488791 -9.375 1.1875 C-6.0588381 0.0821127 -3.48963365 0.01996358 0 0 Z " fill="#F6F2F7" transform="translate(223.375,163.8125)"/>
<path d="M0 0 C0 4.29 0 8.58 0 13 C3.96 13 7.92 13 12 13 C12 14.98 12 16.96 12 19 C8.04 19 4.08 19 0 19 C0.09360474 23.21792077 0.19971309 27.43528583 0.31738281 31.65258789 C0.35564866 33.08707068 0.39050581 34.52164865 0.421875 35.95629883 C0.46757862 38.01938878 0.52556193 40.08182495 0.5859375 42.14453125 C0.6173584 43.38565674 0.6487793 44.62678223 0.68115234 45.90551758 C0.77399209 49.16636101 0.77399209 49.16636101 3 52 C5.20725073 52.36362818 5.20725073 52.36362818 7.625 52.1875 C8.85089844 52.14689453 8.85089844 52.14689453 10.1015625 52.10546875 C11.04128906 52.05326172 11.04128906 52.05326172 12 52 C12.04254356 53.99954746 12.04080783 56.00041636 12 58 C10.20302531 59.79697469 7.68266844 59.33959993 5.25 59.4375 C-0.38481723 59.41739958 -0.38481723 59.41739958 -2.87109375 57.73046875 C-6.67310316 53.09359674 -7.14068368 49.55390724 -7.09765625 43.8046875 C-7.0962413 43.09724396 -7.09482635 42.38980042 -7.09336853 41.66091919 C-7.087766 39.39890331 -7.07521318 37.13698602 -7.0625 34.875 C-7.05748532 33.34244935 -7.05292236 31.80989714 -7.04882812 30.27734375 C-7.03779577 26.51819112 -7.02052952 22.75911228 -7 19 C-9.64 19 -12.28 19 -15 19 C-15 17.02 -15 15.04 -15 13 C-12.36 13 -9.72 13 -7 13 C-7 9.37 -7 5.74 -7 2 C-3 0 -3 0 0 0 Z " fill="#F8F6F9" transform="translate(453,152)"/>
<path d="M0 0 C3.48805691 1.98102187 6.19713391 4.39426782 8 8 C8.50890436 14.10685229 8.0775461 17.12959772 4 22 C0.07424634 25.54337506 -3.15253774 25.6725393 -8.296875 25.5625 C-12.20086126 24.75010979 -13.72358425 22.89115045 -15.9765625 19.7265625 C-18.26188637 15.87116879 -18.60810414 12.42108146 -18 8 C-13.71528113 0.02155796 -8.63198907 -1.41862773 0 0 Z " fill="#FBF9FB" transform="translate(66,374)"/>
<path d="M0 0 C3.12578143 1.6720747 5.39281175 3.7856235 7 7 C7.3501723 12.34012755 7.48069602 15.67913597 4 20 C0.97967037 23.19291989 -0.52537867 23.93973063 -4.9375 24.5 C-9.17514217 24.27570136 -11.76348747 22.7741536 -15 20 C-17.54481052 15.8198645 -17.83428051 11.77439737 -17 7 C-13.03121338 -0.11135744 -7.60452124 -1.07138737 0 0 Z " fill="#6F3481" transform="translate(487,156)"/>
<path d="M0 0 C2.31 0 4.62 0 7 0 C7.33 1.98 7.66 3.96 8 6 C8.928125 4.515 8.928125 4.515 9.875 3 C11.74139773 0.69540454 12.58441295 0.06471737 15.55859375 -0.3984375 C18.06263384 -0.37712652 20.51009157 -0.26107778 23 0 C23 2.31 23 4.62 23 7 C22.40832031 6.94199219 21.81664062 6.88398438 21.20703125 6.82421875 C16.69784184 6.56676095 14.69527984 6.46405512 11 9.3125 C7.88498953 13.49829533 7.8342289 16.75539282 7.68359375 21.85546875 C7.66281265 22.51710526 7.64203156 23.17874176 7.62062073 23.86042786 C7.55535273 25.96934852 7.49634656 28.07839135 7.4375 30.1875 C7.39429311 31.61915315 7.35067812 33.05079404 7.30664062 34.48242188 C7.19969494 37.98815154 7.09836359 41.49401786 7 45 C4.69 45 2.38 45 0 45 C0 30.15 0 15.3 0 0 Z " fill="#F9F6F9" transform="translate(246,165)"/>
<path d="M0 0 C2.64 0 5.28 0 8 0 C8 14.85 8 29.7 8 45 C5.36 45 2.72 45 0 45 C0 30.15 0 15.3 0 0 Z " fill="#EFE9F1" transform="translate(182,165)"/>
<path d="M0 0 C3.12578143 1.6720747 5.39281175 3.7856235 7 7 C7.3501723 12.34012755 7.48069602 15.67913597 4 20 C0.97967037 23.19291989 -0.52537867 23.93973063 -4.9375 24.5 C-9.17514217 24.27570136 -11.76348747 22.7741536 -15 20 C-17.54481052 15.8198645 -17.83428051 11.77439737 -17 7 C-13.03121338 -0.11135744 -7.60452124 -1.07138737 0 0 Z M-13 4 C-15.6790573 8.01858595 -15.69610694 11.27641721 -15 16 C-13.20606332 18.87029869 -12.01736724 20.49131638 -9 22 C-3.18654053 22.53365513 -3.18654053 22.53365513 1.9375 20.125 C5.3215355 16.63841797 5.38966392 13.96407286 5.359375 9.26171875 C4.78943134 5.67479071 2.79773951 4.13161106 0 2 C-4.80030139 -0.40015069 -8.90631564 0.92973673 -13 4 Z " fill="#DBCDDF" transform="translate(487,156)"/>
<path d="M0 0 C6.0546875 -0.1953125 6.0546875 -0.1953125 8 0 C8.66 0.66 9.32 1.32 10 2 C9.625 4.4375 9.625 4.4375 9 7 C9 9.83967231 9.40267181 12.23735711 10 15 C9.01 14.67 8.02 14.34 7 14 C6.33333333 12.66666667 5.66666667 11.33333333 5 10 C4.01 9.67 3.02 9.34 2 9 C2 10.98 2 12.96 2 15 C1.34 15 0.68 15 0 15 C0 10.05 0 5.1 0 0 Z " fill="#E7DDEA" transform="translate(477,160)"/>
<path d="M0 0 C3.29714793 0.32971479 4.6226839 0.6226839 7 3 C6.67028521 6.29714793 6.3773161 7.6226839 4 10 C0.70285207 9.67028521 -0.6226839 9.3773161 -3 7 C-2.67028521 3.70285207 -2.3773161 2.3773161 0 0 Z " fill="#EFE9F1" transform="translate(184,144)"/>
<path d="M0 0 C1.875 0.25 1.875 0.25 4 1 C4.66666667 2.33333333 5.33333333 3.66666667 6 5 C8.05000871 5.80528889 8.05000871 5.80528889 10 6 C9 7.5 9 7.5 7 9 C4.20126171 9.39491399 1.86182546 9.227129 -1 9 C-1.66 8.34 -2.32 7.68 -3 7 C-2.01 6.67 -1.02 6.34 0 6 C0 4.02 0 2.04 0 0 Z " fill="#784088" transform="translate(479,169)"/>
<path d="M0 0 C0.33 4.95 0.66 9.9 1 15 C-3 13 -3 13 -4 11 C-4.203125 8.90625 -4.203125 8.90625 -4.25 6.5 C-4.27578125 5.7059375 -4.3015625 4.911875 -4.328125 4.09375 C-4.21984375 3.4028125 -4.1115625 2.711875 -4 2 C-1 0 -1 0 0 0 Z " fill="#692B7B" transform="translate(476,161)"/>
<path d="M0 0 C0.33 0 0.66 0 1 0 C1.09796875 0.61488281 1.1959375 1.22976562 1.296875 1.86328125 C1.44640625 2.67152344 1.5959375 3.47976562 1.75 4.3125 C1.88921875 5.11300781 2.0284375 5.91351563 2.171875 6.73828125 C3.24291086 9.66342163 4.26248485 10.53749191 7 12 C9.81829883 12.36100534 9.81829883 12.36100534 12.75 12.1875 C13.73484375 12.16042969 14.7196875 12.13335937 15.734375 12.10546875 C16.48203125 12.07066406 17.2296875 12.03585938 18 12 C15.59434833 14.80783492 15.14863687 14.98294331 11.1875 15.4375 C6.85450533 15.26194589 4.28416947 13.89319692 1 11 C-1.36346044 7.09515232 -1.0150934 4.36490163 0 0 Z " fill="#C7B1CE" transform="translate(471,165)"/>
<path d="M0 0 C-0.33 0.99 -0.66 1.98 -1 3 C-3.31 3 -5.62 3 -8 3 C-8 7.95 -8 12.9 -8 18 C-8.33 18 -8.66 18 -9 18 C-9.33 13.71 -9.66 9.42 -10 5 C-10.99 5.495 -10.99 5.495 -12 6 C-11.05275873 3.63189682 -10.34708866 2.24792047 -8.25 0.75 C-5.42246362 -0.19251213 -2.96006696 -0.1345485 0 0 Z " fill="#713682" transform="translate(485,157)"/>
<path d="M0 0 C1.98 0 3.96 0 6 0 C4.68 0.33 3.36 0.66 2 1 C2.185625 2.010625 2.37125 3.02125 2.5625 4.0625 C2.99768247 7.97914227 2.70853021 11.14244663 2 15 C1.34 15 0.68 15 0 15 C0 10.05 0 5.1 0 0 Z " fill="#EEE7F0" transform="translate(477,160)"/>
<path d="M0 0 C1.65 0 3.3 0 5 0 C5.5625 1.9375 5.5625 1.9375 6 4 C5 5 5 5 2.4375 5.0625 C1.2309375 5.0315625 1.2309375 5.0315625 0 5 C0 3.35 0 1.7 0 0 Z " fill="#804C8F" transform="translate(479,162)"/>
<path d="M0 0 C-0.33 0.99 -0.66 1.98 -1 3 C-3.31 3 -5.62 3 -8 3 C-8.33 2.34 -8.66 1.68 -9 1 C-5.8035914 -0.06546953 -3.34252724 -0.07427838 0 0 Z " fill="#7F4B8F" transform="translate(485,157)"/>
</svg>
