<?xml version="1.0" encoding="UTF-8"?>
<svg version="1.1" xmlns="http://www.w3.org/2000/svg" width="243" height="243">
<path d="M0 0 C10.99663466 9.59602163 19.66159481 20.63541719 26.8125 33.33984375 C27.41964844 34.40589844 28.02679688 35.47195312 28.65234375 36.5703125 C43.54592768 64.3694965 45.91017863 98.25328776 36.91308594 128.35546875 C30.80877469 147.15313246 20.34501856 163.0426452 6.8125 177.33984375 C6.0803125 178.12488281 5.348125 178.90992188 4.59375 179.71875 C-0.54950461 185.0702702 -5.95791746 189.32422796 -12.1875 193.33984375 C-13.67056641 194.32984375 -13.67056641 194.32984375 -15.18359375 195.33984375 C-34.47245074 207.80559221 -56.53402858 213.76682792 -79.4375 213.65234375 C-80.6140918 213.6474292 -81.79068359 213.64251465 -83.00292969 213.63745117 C-115.44380851 213.20357111 -144.97109293 199.29595374 -167.91796875 176.64453125 C-184.68690884 158.80965853 -195.95142915 136.43965221 -200.1875 112.33984375 C-200.373125 111.31375 -200.55875 110.28765625 -200.75 109.23046875 C-204.54222293 75.50677202 -196.66313397 42.94792915 -175.46484375 16.23828125 C-154.44233544 -9.26860478 -125.191928 -25.9884899 -92.16796875 -29.37890625 C-58.00659826 -31.79266354 -26.23622027 -22.20175199 0 0 Z " fill="#763EA2" transform="translate(201.1875,29.66015625)"/>
<path d="M0 0 C10.99663466 9.59602163 19.66159481 20.63541719 26.8125 33.33984375 C27.41964844 34.40589844 28.02679688 35.47195312 28.65234375 36.5703125 C43.54592768 64.3694965 45.91017863 98.25328776 36.91308594 128.35546875 C31.13839857 146.13808612 21.41405008 161.59627819 8.8125 175.33984375 C4.23310678 174.47112152 1.83986603 171.77536922 -1.33300781 168.55078125 C-1.93831329 167.94752014 -2.54361877 167.34425903 -3.16726685 166.72271729 C-5.16571966 164.72727223 -7.15322513 162.72129265 -9.140625 160.71484375 C-10.52438037 159.32803131 -11.90872678 157.94180838 -13.29364014 156.55615234 C-16.19319369 153.6519961 -19.08776536 150.74299676 -21.97851562 147.83007812 C-25.69325338 144.08700537 -29.4166632 140.3527138 -33.14336014 136.62155151 C-36.00047518 133.76029063 -38.85474719 130.89620901 -41.70796967 128.03106689 C-43.08070336 126.65261732 -44.45391892 125.27464744 -45.82761383 123.89715576 C-47.74091664 121.97701773 -49.65078383 120.05353262 -51.55957031 118.12890625 C-52.13303192 117.55432678 -52.70649353 116.97974731 -53.29733276 116.38775635 C-57.1875 112.45453125 -57.1875 112.45453125 -57.1875 111.33984375 C-52.5675 111.33984375 -47.9475 111.33984375 -43.1875 111.33984375 C-43.1875 108.69984375 -43.1875 106.05984375 -43.1875 103.33984375 C-52.7575 103.33984375 -62.3275 103.33984375 -72.1875 103.33984375 C-72.1875 95.41984375 -72.1875 87.49984375 -72.1875 79.33984375 C-63.9375 79.33984375 -55.6875 79.33984375 -47.1875 79.33984375 C-47.1875 77.02984375 -47.1875 74.71984375 -47.1875 72.33984375 C-55.4375 72.33984375 -63.6875 72.33984375 -72.1875 72.33984375 C-72.1875 64.74984375 -72.1875 57.15984375 -72.1875 49.33984375 C-63.2775 49.33984375 -54.3675 49.33984375 -45.1875 49.33984375 C-45.1875 46.69984375 -45.1875 44.05984375 -45.1875 41.33984375 C-56.7375 41.33984375 -68.2875 41.33984375 -80.1875 41.33984375 C-80.1875 56.84984375 -80.1875 72.35984375 -80.1875 88.33984375 C-82.4975 86.35984375 -84.8075 84.37984375 -87.1875 82.33984375 C-88.12190918 81.60588379 -89.05631836 80.87192383 -90.01904297 80.11572266 C-95.48935148 75.42493048 -97.81923921 72.08374278 -98.3828125 64.80078125 C-98.44427778 62.10069343 -98.38696174 59.41408175 -98.3125 56.71484375 C-98.31055366 55.3151031 -98.31312605 53.91534856 -98.3203125 52.515625 C-98.3203125 49.12089196 -98.27496906 45.73326011 -98.1875 42.33984375 C-100.8275 42.00984375 -103.4675 41.67984375 -106.1875 41.33984375 C-106.1875 48.26984375 -106.1875 55.19984375 -106.1875 62.33984375 C-110.52001667 58.62625803 -114.57400732 55.07703489 -118.57202148 51.06884766 C-119.0607222 50.58029297 -119.54942291 50.09173828 -120.05293274 49.58837891 C-121.64054003 48.00008436 -123.22459237 46.40829624 -124.80859375 44.81640625 C-125.91938169 43.7037499 -127.0303931 42.59131659 -128.14161682 41.47909546 C-131.04538934 38.57153105 -133.94614436 35.6609747 -136.84625244 32.74975586 C-139.81428263 29.77143946 -142.78519662 26.79600269 -145.75585938 23.8203125 C-151.56921083 17.99628252 -157.37937334 12.16908425 -163.1875 6.33984375 C-162.57118965 5.62769211 -162.57118965 5.62769211 -161.94242859 4.90115356 C-161.40286026 4.27522308 -160.86329193 3.6492926 -160.30737305 3.00439453 C-159.77274948 2.38525177 -159.23812592 1.76610901 -158.68730164 1.12820435 C-157.49034065 -0.29904964 -156.36633239 -1.78738022 -155.26953125 -3.29296875 C-152.51460153 -6.4252153 -149.42186251 -8.38313209 -145.875 -10.53515625 C-145.16714355 -10.96787842 -144.45928711 -11.40060059 -143.72998047 -11.84643555 C-97.91757491 -39.34916667 -40.76877575 -34.49956735 0 0 Z " fill="#642697" transform="translate(201.1875,29.66015625)"/>
<path d="M0 0 C2.64 0 5.28 0 8 0 C8 23.1 8 46.2 8 70 C4.7 70 1.4 70 -2 70 C-4.56551203 67.20629757 -5.9660256 65.20543276 -7.6875 61.9375 C-8.69485533 60.19093908 -9.70542184 58.44622736 -10.71875 56.703125 C-11.50765625 55.3119043 -11.50765625 55.3119043 -12.3125 53.89257812 C-15.24467853 48.86647118 -18.47864178 44.03975232 -21.6875 39.1875 C-27.17443469 30.8225887 -32.58992299 22.41567535 -38 14 C-38.33 32.48 -38.66 50.96 -39 70 C-41.64 70 -44.28 70 -47 70 C-47 47.23 -47 24.46 -47 1 C-43.37 1 -39.74 1 -36 1 C-33.01472358 4.3084414 -31.25712235 6.79723906 -29.1875 10.625 C-28.003746 12.64520075 -26.81881518 14.66471231 -25.6328125 16.68359375 C-25.03758789 17.72757324 -24.44236328 18.77155273 -23.82910156 19.84716797 C-20.89989254 24.89626105 -17.72574307 29.78300267 -14.5625 34.6875 C-13.45838013 36.41977346 -12.35547689 38.1528231 -11.25390625 39.88671875 C-9.64322266 42.41779297 -9.64322266 42.41779297 -8 45 C-5.69 48.63 -3.38 52.26 -1 56 C-0.67 37.52 -0.34 19.04 0 0 Z " fill="#FAF8FB" transform="translate(95,71)"/>
<path d="M0 0 C11.55 0 23.1 0 35 0 C35 2.64 35 5.28 35 8 C26.09 8 17.18 8 8 8 C8 15.59 8 23.18 8 31 C16.25 31 24.5 31 33 31 C33 33.31 33 35.62 33 38 C24.75 38 16.5 38 8 38 C8 45.92 8 53.84 8 62 C17.57 62 27.14 62 37 62 C37 64.64 37 67.28 37 70 C24.79 70 12.58 70 0 70 C0 46.9 0 23.8 0 0 Z " fill="#F8F5FA" transform="translate(121,71)"/>
<path d="M0 0 C15.84 0 31.68 0 48 0 C48 2.31 48 4.62 48 7 C41.4 7 34.8 7 28 7 C28 27.46 28 47.92 28 69 C25.36 69 22.72 69 20 69 C20 48.54 20 28.08 20 7 C13.4 7 6.8 7 0 7 C0 4.69 0 2.38 0 0 Z " fill="#FBF9FC" transform="translate(164,72)"/>
<path d="M0 0 C2.82424288 2.19022918 4.41508603 3.83017207 6 7 C6.50872093 13.10465114 6.06705978 16.11952826 2 21 C-2.01858595 23.6790573 -5.27641721 23.69610694 -10 23 C-12.87029869 21.20606332 -14.49131638 20.01736724 -16 17 C-16.51124099 11.79539913 -16.86132441 7.43554069 -14.125 2.875 C-9.91388144 -0.84069284 -5.42154848 -0.78424915 0 0 Z " fill="#7841A3" transform="translate(120,166)"/>
<path d="M0 0 C2.69105198 2.17574416 4.45532928 3.91065856 6 7 C6 8.98 6 10.96 6 13 C0.72 13 -4.56 13 -10 13 C-9.01 14.98 -8.02 16.96 -7 19 C-5.1128125 19.0309375 -5.1128125 19.0309375 -3.1875 19.0625 C-2.47980469 19.07410156 -1.77210938 19.08570313 -1.04296875 19.09765625 C1.20305461 19.08263217 1.20305461 19.08263217 4 18 C4 19.32 4 20.64 4 22 C0.00302689 23.99848655 -4.66359886 23.62484166 -9 23 C-12.79332975 20.24797646 -13.69800733 18.87784531 -14.4296875 14.328125 C-14.64035048 9.74310711 -14.51560738 6.85934563 -12.125 2.875 C-8.43772575 -0.37847728 -4.79766152 -0.84556487 0 0 Z " fill="#E2DAE8" transform="translate(160,166)"/>
<path d="M0 0 C0.9796875 -0.00257813 1.959375 -0.00515625 2.96875 -0.0078125 C5.5 0.125 5.5 0.125 7.5 1.125 C7.17 2.445 6.84 3.765 6.5 5.125 C5.51 4.795 4.52 4.465 3.5 4.125 C-2.25673812 3.60569818 -2.25673812 3.60569818 -7.375 5.875 C-11.24828768 9.97612813 -11.93728156 13.35478109 -11.828125 18.8671875 C-11.32490078 22.32984941 -9.7300238 24.50144259 -7.5 27.125 C-5.02621876 28.36189062 -3.32084683 28.25810087 -0.5625 28.25 C0.31277344 28.25257813 1.18804687 28.25515625 2.08984375 28.2578125 C4.64459056 28.22322003 4.64459056 28.22322003 7.5 27.125 C7.5 28.445 7.5 29.765 7.5 31.125 C2.31244776 33.38624072 -2.09432868 33.61688778 -7.5 32.125 C-12.06833014 29.65295988 -14.81612309 25.98953329 -16.5 21.125 C-17.4662128 14.60008149 -16.35010447 10.43190076 -12.5 5.125 C-8.17804208 1.21465712 -5.77307246 -0.0151923 0 0 Z " fill="#E7E2EB" transform="translate(91.5,156.875)"/>
<path d="M0 0 C2.82424288 2.19022918 4.41508603 3.83017207 6 7 C6.50872093 13.10465114 6.06705978 16.11952826 2 21 C-2.01858595 23.6790573 -5.27641721 23.69610694 -10 23 C-12.87029869 21.20606332 -14.49131638 20.01736724 -16 17 C-16.51124099 11.79539913 -16.86132441 7.43554069 -14.125 2.875 C-9.91388144 -0.84069284 -5.42154848 -0.78424915 0 0 Z M-11.4375 5.0625 C-13.39880697 8.74975711 -13.58949998 10.87350014 -13 15 C-11.67838573 18.06873898 -11.67838573 18.06873898 -9 20 C-5.98989661 20.69044625 -4.17372355 20.45338908 -1 20 C1.22303517 18.67734485 1.22303517 18.67734485 2 16 C2.63048504 11.65045129 2.76198611 8.24965721 0.4375 4.4375 C-3.93645795 1.85798634 -7.5161086 1.74439959 -11.4375 5.0625 Z " fill="#E8E4EC" transform="translate(120,166)"/>
<path d="M0 0 C0.99 0 1.98 0 3 0 C3.33 0.99 3.66 1.98 4 3 C4.4125 2.505 4.825 2.01 5.25 1.5 C7 0 7 0 11 0 C11 0.99 11 1.98 11 3 C10.21625 3.268125 9.4325 3.53625 8.625 3.8125 C5.71885077 4.84814432 5.71885077 4.84814432 4 8 C3.70008931 10.58885171 3.49134775 13.09149082 3.375 15.6875 C3.33632812 16.38939453 3.29765625 17.09128906 3.2578125 17.81445312 C3.1637666 19.54254655 3.0808032 21.27123675 3 23 C2.01 23 1.02 23 0 23 C0 15.41 0 7.82 0 0 Z " fill="#F0EFF0" transform="translate(132,166)"/>
<path d="M0 0 C6.57692308 0.57692308 6.57692308 0.57692308 8 2 C8.45691383 7.25450902 8.45691383 7.25450902 6.8125 9.9375 C5 11 5 11 2.4375 10.8125 C0 10 0 10 -2 8 C-2.25 5 -2.25 5 -2 2 C-1.34 1.34 -0.68 0.68 0 0 Z " fill="#F6F3F9" transform="translate(25,131)"/>
<path d="M0 0 C3.0625 0.375 3.0625 0.375 4.9375 2.25 C6.0625 4.375 6.0625 4.375 6.0625 6.375 C2.1025 6.375 -1.8575 6.375 -5.9375 6.375 C-4.48695055 0.5728022 -4.48695055 0.5728022 0 0 Z " fill="#7A44A4" transform="translate(155.9375,168.625)"/>
<path d="M0 0 C0 0.99 0 1.98 0 3 C-1.98 3.66 -3.96 4.32 -6 5 C-6.33 4.34 -6.66 3.68 -7 3 C-4.49955934 -0.00052879 -4.2621484 0 0 0 Z " fill="#E7E2EB" transform="translate(143,166)"/>
</svg>
