<?xml version="1.0" standalone="no"?>
<!DOCTYPE svg PUBLIC "-//W3C//DTD SVG 20010904//EN"
 "http://www.w3.org/TR/2001/REC-SVG-20010904/DTD/svg10.dtd">
<svg version="1.0" xmlns="http://www.w3.org/2000/svg"
 width="128.000000pt" height="128.000000pt" viewBox="0 0 128.000000 128.000000"
 preserveAspectRatio="xMidYMid meet">

<g transform="translate(0.000000,128.000000) scale(0.100000,-0.100000)"
fill="#000000" stroke="none">
<path d="M830 1191 c-113 -37 -174 -111 -205 -250 -31 -134 -128 -239 -254
-275 -73 -21 -136 -20 -213 4 -34 11 -66 20 -70 20 -5 0 -8 -133 -8 -295 l0
-295 275 0 275 0 0 226 c0 210 2 229 20 259 31 51 73 65 187 65 121 0 185 17
240 65 188 160 84 467 -162 481 -33 2 -71 0 -85 -5z"/>
</g>
</svg>
